# xmcd
#
# Track frame offsets:
#	150
#	31314
#	57496
#	104046
#	118295
#	148409
#	191708
#	228619
#	255692
#	290005
#
# Disc length: 4325 seconds
#
# Revision: 1
# Processed by: cddbd v1.5.2PL0 Copyright (c) Steve Scherf et al.
# Submitted via: audiograbber 1.83.01
#
DISCID=a910e30a
DTITLE=Grateful Dead - 78-04-11 Fox Theatre, Atlanta GA
DYEAR=1900
DGENRE=
TTITLE0=Bertha
TTITLE1=Good Lovin'
TTITLE2=Friend Of The Devil
TTITLE3=Me and My Uncle
TTITLE4=Big River
TTITLE5=Tennessee Jed
TTITLE6=Looks Like Rain
TTITLE7=Brown Eyed Women
TTITLE8=New Minglewood Blues
TTITLE9=Deal
EXTD=
EXTT0=
EXTT1=
EXTT2=
EXTT3=
EXTT4=
EXTT5=
EXTT6=
EXTT7=
EXTT8=
EXTT9=
PLAYORDER=
